<svg width="190" height="202" viewBox="0 0 190 202" fill="none" xmlns="http://www.w3.org/2000/svg">
<path d="M65.7337 45.4891H25.2446M65.7337 45.4891C76.9144 45.4891 85.9782 54.5529 85.9782 65.7337V197.323H5V65.7337C5 54.5529 14.0638 45.4891 25.2446 45.4891M65.7337 45.4891V25.2446H25.2446V45.4891M164.755 45.4891H124.266M164.755 45.4891C175.936 45.4891 185 54.5529 185 65.7337V197.323H104.022V65.7337C104.022 54.5529 113.086 45.4891 124.266 45.4891M164.755 45.4891V25.2446H124.266V45.4891M15.1223 5H75.856V25.2446H15.1223V5ZM46.4814 90.0035C53.0429 90.6137 50.5785 97.8417 55.6102 102.097C61.8381 107.364 71.6328 101.018 73.771 108.889C75.8001 116.359 65.7071 117.377 63.5612 124.815C61.6079 131.584 69.0212 136.659 63.5612 141.112C57.9255 145.709 53.754 137.525 46.4814 137.525C39.208 137.525 34.3654 145.587 28.6312 141.113C23.0814 136.782 30.6552 131.557 28.6312 124.815C26.4559 117.568 15.2799 116.09 17.5998 108.889C19.8774 101.819 29.4222 106.552 35.3657 102.097C40.9985 97.875 39.4722 89.3516 46.4814 90.0035ZM114.144 5H174.878V25.2446H114.144V5ZM145.503 90.0035C152.065 90.6137 149.6 97.8417 154.632 102.097C160.86 107.364 170.655 101.018 172.793 108.889C174.822 116.359 164.729 117.377 162.583 124.815C160.63 131.584 168.043 136.659 162.583 141.112C156.947 145.709 152.776 137.525 145.503 137.525C138.23 137.525 133.387 145.587 127.653 141.113C122.103 136.782 129.677 131.557 127.653 124.815C125.478 117.568 114.302 116.09 116.622 108.889C118.899 101.819 128.444 106.552 134.387 102.097C140.02 97.875 138.494 89.3516 145.503 90.0035Z" stroke="black" stroke-width="9"/>
</svg>
